<?xml version="1.0" encoding="UTF-8" standalone="no" ?>
<!DOCTYPE svg PUBLIC "-//W3C//DTD SVG 1.1//EN" "http://www.w3.org/Graphics/SVG/1.1/DTD/svg11.dtd">
<svg xmlns="http://www.w3.org/2000/svg" xmlns:xlink="http://www.w3.org/1999/xlink" version="1.1" width="3100" height="3594.2965779467695" viewBox="0 0 3100 3594.3" xml:space="preserve">
<desc>Created with Fabric.js 1.7.7</desc>
<defs>
</defs>
<g transform="translate(1550 1797.15) scale(8.74 8.74)" style="">
	<g transform="translate(0 0) scale(2.9 2.9)" style="">
	<path d="M 115.5 115.1 c -0.4 6.168 -6.05 11.301 -16.95 15.4 c -10.866 4.1 -24.466 6.233 -40.8 6.4 c -16.333 -0.167 -29.933 -2.301 -40.8 -6.4 S 0.433 121.268 0 115.1 c 0.1 -3.533 2.117 -6.783 6.05 -9.75 c 3.967 -2.933 9.367 -5.399 16.2 -7.399 v 0.101 c -8.967 4.066 -13.617 9.183 -13.95 15.35 c 0.367 6.199 5.2 11.383 14.5 15.55 c 9.333 4.134 20.983 6.283 34.95 6.45 c 13.967 -0.167 25.617 -2.316 34.95 -6.45 c 9.3 -4.167 14.134 -9.351 14.5 -15.55 c -0.3 -5.301 -2.983 -9.4 -8.05 -12.301 C 94.084 98.167 88.367 96.133 82 95 c -6.334 -1.133 -11.566 -1.65 -15.7 -1.55 c -6.767 0.101 -12.733 0.933 -17.9 2.5 c -5.167 1.533 -8.85 3.616 -11.05 6.25 c 8.767 -4.067 18.3 -6.134 28.6 -6.2 c 4.267 -0.232 10.267 0.066 18 0.9 c 7.733 0.8 14.833 2.6 21.3 5.4 C 111.684 105.133 115.1 109.4 115.5 115.1 z" style="stroke: rgb(255,255,255); stroke-width: 1; stroke-dasharray: none; stroke-linecap: butt; stroke-linejoin: miter; stroke-miterlimit: 10; fill: rgb(255,255,255); fill-rule: evenodd; opacity: 1;" transform="translate(-0.92 46.69) translate(-57.75, -115.1689219381002)  matrix(1 0 0 1 0 0) " stroke-linecap="round" />
	<path d="M 117.051 29.6 c -3.334 1.5 -6.668 2.967 -10 4.4 c -0.367 2.5 -1.484 4.833 -3.351 7 c -2.601 2.934 -5.717 4.383 -9.351 4.35 c -3.633 0 -7.433 -0.683 -11.399 -2.05 c -5.433 -2.034 -11 -3.684 -16.7 -4.95 c -5.699 -1.267 -11.05 0.083 -16.05 4.05 c -3.7 3.733 -5.4 8.583 -5.1 14.55 C 45.367 62.917 47.333 67.6 51 71 c 3.333 2.5 7.117 3.334 11.35 2.5 c 4.201 -0.8 7.301 -3.066 9.301 -6.8 c 1.467 -3.467 1.617 -6.983 0.449 -10.55 c -1.166 -3.533 -3.467 -6 -6.899 -7.4 c -6.567 -1.933 -10.6 0.517 -12.1 7.35 c -1.066 -3.433 -0.816 -6.333 0.75 -8.7 c 1.6 -2.4 3.883 -3.65 6.85 -3.75 c 4.7 -0.066 8.116 2.517 10.25 7.75 c 1.3 4.934 0.517 9.034 -2.351 12.3 c -2.899 3.233 -6.717 4.933 -11.449 5.1 c -5.434 -0.133 -9.667 -1.934 -12.7 -5.4 c -3.067 -3.5 -4.567 -7.617 -4.5 -12.35 c 0.4 -6.7 3.183 -11.633 8.35 -14.8 c 5.133 -3.2 10.85 -4.233 17.15 -3.1 c 7.033 1.934 13.601 4.784 19.7 8.55 c 3.666 2.233 7.4 3.7 11.199 4.4 c 3.768 0.733 7.634 -0.267 11.601 -3 C 111.584 40.5 114.617 36 117.051 29.6 z" style="stroke: rgb(255,255,255); stroke-width: 1; stroke-dasharray: none; stroke-linecap: butt; stroke-linejoin: miter; stroke-miterlimit: 10; fill: rgb(255,255,255); fill-rule: evenodd; opacity: 1;" transform="translate(19.82 -16.77) translate(-78.49992573388641, -51.70639062851387)  matrix(1 0 0 1 0 0) " stroke-linecap="round" />
	<path d="M 117.35 29.1 l -0.699 1.4 L 39.5 65.3 c -2.433 1.267 -5.5 2.333 -9.2 3.2 c -4.133 0.7 -7.133 0.167 -9 -1.6 c -2.233 -2.167 -2.934 -4.583 -2.1 -7.25 c 0.8 -2.7 3.083 -4.117 6.85 -4.25 c -1.867 0.267 -3.133 1.2 -3.8 2.8 c -0.633 1.6 -0.3 3.2 1 4.8 c 2.133 2.033 4.617 2.833 7.45 2.4 c 2.867 -0.466 5.5 -1.233 7.9 -2.3 L 117.35 29.1 z" style="stroke: rgb(255,255,255); stroke-width: 1; stroke-dasharray: none; stroke-linecap: butt; stroke-linejoin: miter; stroke-miterlimit: 10; fill: rgb(255,255,255); fill-rule: evenodd; opacity: 1;" transform="translate(9.43 -19.53) translate(-68.10504581095512, -48.94901532968109)  matrix(1 0 0 1 0 0) " stroke-linecap="round" />
	<path d="M 62.301 15.1 C 75.967 35.133 92.35 38.7 111.45 25.8 C 94.85 30.933 78.467 27.367 62.301 15.1 z M 75.7 68.2 L 93 110.65 C 78.533 96.517 72.768 82.367 75.7 68.2 z M 44.8 70.2 c 2 3.7 2.733 7.517 2.2 11.45 c -0.533 3.934 -4.95 8.1 -13.25 12.5 c -5.9 2.766 -9.9 6.699 -12 11.8 c -2.066 5.1 -2.767 11.05 -2.1 17.85 L 44.8 70.2 z M 46.5 25.75 c -5.433 0.433 -9.566 2.417 -12.4 5.95 c -2.8 4 -3.517 7.85 -2.15 11.55 c 1.333 3.7 4.083 6.717 8.25 9.05 c 3.4 1.833 7 3.284 10.8 4.35 c 3.767 1.1 7.034 2.033 9.801 2.8 c -3.5 0.1 -7.851 -0.3 -13.051 -1.2 c -5.167 -0.9 -10.066 -2.45 -14.7 -4.65 c -6.4 -3.533 -9.934 -8.233 -10.6 -14.1 c -0.633 -5.833 2.25 -10.633 8.65 -14.4 c 4.967 -2.333 10.533 -3.167 16.7 -2.5 c 6.2 0.633 11.583 1.9 16.15 3.8 C 57.75 25.533 51.934 25.317 46.5 25.75 z M 52.85 0.65 c -3.4 -1.467 -6.467 -0.233 -9.2 3.7 c -2.034 4.333 -1.534 7.65 1.5 9.95 c 3.433 1.467 6.5 0.233 9.2 -3.7 C 56.383 6.267 55.883 2.95 52.85 0.65 z" style="stroke: rgb(255,255,255); stroke-width: 1; stroke-dasharray: none; stroke-linecap: butt; stroke-linejoin: miter; stroke-miterlimit: 10; fill: rgb(255,255,255); fill-rule: evenodd; opacity: 1;" transform="translate(6.75 -6.55) translate(-65.4280240367498, -61.926189382665655)  matrix(1 0 0 1 0 0) " stroke-linecap="round" />
</g>
		<g transform="translate(18.71 134.41) scale(1.75 1.77)">
		<text font-family="Aclonica" font-size="16" font-weight="700" style="stroke: rgb(255,255,255); stroke-width: 1; stroke-dasharray: none; stroke-linecap: butt; stroke-linejoin: miter; stroke-miterlimit: 10; fill: rgb(255,255,255); fill-rule: nonzero; opacity: 1;" >
			<tspan x="-67.5" y="5.04" style="stroke: rgb(255,255,255); stroke-width: 0; stroke-dasharray: none; stroke-linecap: butt; stroke-linejoin: miter; stroke-miterlimit: 4; fill: rgb(255,255,255); fill-rule: ; opacity: 1;">M</tspan>
			<tspan x="-51.5" y="5.04" style="stroke: rgb(255,255,255); stroke-width: 0; stroke-dasharray: none; stroke-linecap: butt; stroke-linejoin: miter; stroke-miterlimit: 4; fill: rgb(255,255,255); fill-rule: ; opacity: 1;">-</tspan>
			<tspan x="-44.5" y="5.04" style="stroke: rgb(255,255,255); stroke-width: 0; stroke-dasharray: none; stroke-linecap: butt; stroke-linejoin: miter; stroke-miterlimit: 4; fill: rgb(255,255,255); fill-rule: ; opacity: 1;">P</tspan>
			<tspan x="-32.5" y="5.04" style="stroke: rgb(255,255,255); stroke-width: 0; stroke-dasharray: none; stroke-linecap: butt; stroke-linejoin: miter; stroke-miterlimit: 4; fill: rgb(255,255,255); fill-rule: ; opacity: 1;">o</tspan>
			<tspan x="-21.5" y="5.04" style="stroke: rgb(255,255,255); stroke-width: 0; stroke-dasharray: none; stroke-linecap: butt; stroke-linejoin: miter; stroke-miterlimit: 4; fill: rgb(255,255,255); fill-rule: ; opacity: 1;">w</tspan>
			<tspan x="-7.5" y="5.04" style="stroke: rgb(255,255,255); stroke-width: 0; stroke-dasharray: none; stroke-linecap: butt; stroke-linejoin: miter; stroke-miterlimit: 4; fill: rgb(255,255,255); fill-rule: ; opacity: 1;">e</tspan>
			<tspan x="2.5" y="5.04" style="stroke: rgb(255,255,255); stroke-width: 0; stroke-dasharray: none; stroke-linecap: butt; stroke-linejoin: miter; stroke-miterlimit: 4; fill: rgb(255,255,255); fill-rule: ; opacity: 1;">r</tspan>
			<tspan x="11.5" y="5.04" style="stroke: rgb(255,255,255); stroke-width: 0; stroke-dasharray: none; stroke-linecap: butt; stroke-linejoin: miter; stroke-miterlimit: 4; fill: rgb(255,255,255); fill-rule: ; opacity: 1;"> </tspan>
			<tspan x="16.5" y="5.04" style="stroke: rgb(255,255,255); stroke-width: 0; stroke-dasharray: none; stroke-linecap: butt; stroke-linejoin: miter; stroke-miterlimit: 4; fill: rgb(255,255,255); fill-rule: ; opacity: 1;">M</tspan>
			<tspan x="32.5" y="5.04" style="stroke: rgb(255,255,255); stroke-width: 0; stroke-dasharray: none; stroke-linecap: butt; stroke-linejoin: miter; stroke-miterlimit: 4; fill: rgb(255,255,255); fill-rule: ; opacity: 1;">u</tspan>
			<tspan x="43.5" y="5.04" style="stroke: rgb(255,255,255); stroke-width: 0; stroke-dasharray: none; stroke-linecap: butt; stroke-linejoin: miter; stroke-miterlimit: 4; fill: rgb(255,255,255); fill-rule: ; opacity: 1;">s</tspan>
			<tspan x="52.5" y="5.04" style="stroke: rgb(255,255,255); stroke-width: 0; stroke-dasharray: none; stroke-linecap: butt; stroke-linejoin: miter; stroke-miterlimit: 4; fill: rgb(255,255,255); fill-rule: ; opacity: 1;">i</tspan>
			<tspan x="57.5" y="5.04" style="stroke: rgb(255,255,255); stroke-width: 0; stroke-dasharray: none; stroke-linecap: butt; stroke-linejoin: miter; stroke-miterlimit: 4; fill: rgb(255,255,255); fill-rule: ; opacity: 1;">c</tspan>
		</text>
	</g>
</g>
</svg>